<?xml version="1.0" standalone="no"?>
<!DOCTYPE svg PUBLIC "-//W3C//DTD SVG 20010904//EN"
 "http://www.w3.org/TR/2001/REC-SVG-20010904/DTD/svg10.dtd">
<svg version="1.0" xmlns="http://www.w3.org/2000/svg"
 width="359.000000pt" height="301.000000pt" viewBox="0 0 359.000000 301.000000"
 preserveAspectRatio="xMidYMid meet">

<g transform="translate(0.000000,301.000000) scale(0.100000,-0.100000)"
fill="#000000" stroke="none">
<path d="M1685 2915 c-33 -7 -82 -25 -109 -40 -74 -41 -1197 -794 -1229 -824
-92 -84 -95 -206 -9 -302 l45 -50 -35 -37 c-96 -100 -100 -208 -12 -302 24
-26 44 -50 44 -54 0 -4 -16 -22 -35 -41 -50 -51 -68 -92 -68 -155 0 -61 17
-103 62 -148 17 -16 160 -116 318 -222 158 -107 424 -285 590 -397 165 -111
321 -211 345 -222 66 -28 182 -44 269 -38 136 11 185 34 461 220 139 93 404
271 588 394 337 226 398 273 428 328 19 37 21 140 3 174 -7 13 -31 44 -53 67
l-41 44 46 49 c52 56 72 112 62 175 -10 54 -20 73 -68 123 l-40 42 40 44 c57
62 67 84 67 153 0 106 -24 132 -284 307 -496 333 -998 666 -1027 681 -85 43
-241 57 -358 31z m132 -580 c70 -21 143 -72 170 -120 26 -47 28 -73 9 -120
l-14 -34 41 16 c28 11 76 17 142 17 89 1 106 -2 160 -27 64 -30 127 -84 151
-129 32 -61 9 -139 -61 -211 -34 -35 -415 -297 -432 -297 -16 -1 -883 585
-883 596 0 15 362 257 425 284 95 41 206 50 292 25z"/>
<path d="M1597 2216 c-46 -17 -276 -167 -276 -181 -1 -5 60 -50 133 -98 l134
-89 106 71 c141 95 180 137 178 193 -2 89 -155 146 -275 104z"/>
<path d="M2017 1976 c-63 -21 -317 -180 -317 -198 0 -10 268 -189 291 -195 22
-6 253 151 297 202 46 52 45 105 -3 151 -37 35 -115 64 -169 64 -17 0 -62 -11
-99 -24z"/>
</g>
</svg>
