<?xml version="1.0" standalone="no"?>
<!DOCTYPE svg PUBLIC "-//W3C//DTD SVG 20010904//EN"
 "http://www.w3.org/TR/2001/REC-SVG-20010904/DTD/svg10.dtd">
<svg version="1.0" xmlns="http://www.w3.org/2000/svg"
 width="360.000000pt" height="360.000000pt" viewBox="0 0 360.000000 360.000000"
 preserveAspectRatio="xMidYMid meet">

<g transform="translate(0.000000,360.000000) scale(0.100000,-0.100000)"
fill="#000000" stroke="none">
<path d="M2310 3499 c-30 -5 -83 -16 -117 -25 -38 -10 -77 -14 -101 -11 -91
15 -291 19 -357 8 -85 -14 -187 -46 -238 -74 l-37 -21 -148 37 c-536 134 -913
21 -1077 -325 -40 -84 -74 -207 -78 -284 -2 -29 -6 -57 -10 -60 -9 -10 -9
-194 1 -194 4 0 8 -24 9 -54 2 -68 52 -316 104 -516 176 -677 381 -1010 623
-1010 75 0 122 13 171 46 37 25 38 25 59 6 66 -59 161 -90 296 -98 89 -6 137
0 246 32 20 5 21 2 27 -148 8 -197 21 -291 59 -407 95 -286 274 -365 604 -266
106 32 194 91 252 169 103 140 144 296 170 656 l7 95 115 6 c191 11 330 58
452 154 130 102 160 225 74 311 -52 52 -98 59 -242 38 -68 -10 -126 -16 -129
-13 -3 3 33 79 79 170 186 362 293 696 317 987 20 253 -13 373 -140 501 -154
156 -310 240 -529 286 -81 17 -366 19 -462 4z m430 -85 c187 -35 329 -107 464
-235 106 -100 134 -154 148 -276 33 -304 -144 -884 -397 -1301 -31 -51 -58
-99 -61 -107 -4 -9 11 -17 53 -25 48 -10 79 -10 179 4 67 9 140 16 163 16 53
0 81 -26 81 -77 0 -32 -8 -45 -63 -99 -115 -112 -247 -157 -464 -158 l-131 -1
-11 -75 c-6 -41 -20 -151 -31 -245 -42 -338 -74 -438 -166 -525 -117 -111
-348 -165 -492 -116 -118 40 -210 166 -238 327 -14 79 -37 565 -27 582 7 12
-3 8 -84 -33 -97 -50 -192 -66 -303 -50 -85 12 -170 49 -200 87 -47 60 -7 128
91 157 30 8 86 24 126 36 62 17 77 26 112 68 l41 47 -47 7 c-26 4 -67 15 -91
24 -53 20 -32 36 -231 -188 -148 -167 -191 -198 -270 -198 -119 0 -237 121
-346 353 -121 257 -272 810 -307 1126 -20 184 10 387 77 521 48 95 103 159
181 213 139 95 325 131 546 108 114 -13 290 -51 383 -84 39 -14 42 -13 101 19
125 70 330 95 514 64 70 -11 84 -10 190 13 149 33 153 34 301 36 80 0 158 -5
209 -15z"/>
<path d="M2415 3318 c-44 -4 -87 -9 -95 -10 -8 -2 21 -24 65 -50 203 -117 389
-336 475 -560 36 -92 39 -180 14 -352 -15 -102 -15 -123 1 -292 19 -204 13
-280 -30 -389 -37 -91 -30 -90 26 5 153 259 286 596 346 880 22 100 27 153 27
265 1 134 0 142 -26 185 -51 88 -202 209 -320 257 -136 55 -314 78 -483 61z"/>
<path d="M1765 3284 c-16 -3 -55 -12 -85 -20 -184 -52 -334 -215 -409 -446
-19 -57 -62 -268 -56 -275 1 -2 30 8 64 22 228 93 405 59 472 -90 26 -59 59
-268 59 -376 0 -143 -15 -208 -91 -401 -38 -97 -69 -181 -69 -187 0 -6 15 -11
33 -11 50 0 120 -49 145 -101 19 -41 21 -68 25 -374 8 -484 23 -575 111 -673
72 -79 176 -90 337 -37 133 45 192 114 223 266 17 87 70 501 86 672 14 158 33
198 112 238 l27 14 -38 50 c-56 73 -264 483 -303 595 -28 83 -32 108 -33 200
0 113 15 159 67 206 57 53 169 84 286 80 23 -1 42 0 42 1 0 2 -22 47 -49 101
-170 338 -463 534 -816 547 -60 2 -123 1 -140 -1z"/>
<path d="M772 3269 c-209 -35 -348 -163 -407 -375 -26 -94 -31 -299 -10 -424
52 -324 170 -743 272 -975 62 -142 115 -226 174 -279 42 -38 58 -46 90 -46 34
0 46 7 92 52 69 70 267 294 267 303 0 4 -18 28 -41 52 -22 24 -54 72 -70 106
-48 103 -54 155 -41 361 7 99 11 260 10 356 -2 130 2 199 15 266 35 191 98
347 188 467 28 37 49 70 47 73 -11 11 -200 53 -283 63 -103 13 -227 13 -303 0z"/>
<path d="M2607 2520 c-100 -25 -127 -62 -127 -170 0 -101 35 -198 159 -444
l106 -209 17 54 c21 67 22 135 3 315 -14 140 -13 177 13 387 5 37 6 67 3 67
-3 0 -35 2 -71 5 -36 2 -82 0 -103 -5z m92 -44 c26 -31 -32 -96 -87 -96 -11 0
-31 10 -46 21 -33 26 -31 58 4 76 34 17 115 17 129 -1z"/>
<path d="M1403 2495 c-29 -8 -82 -30 -119 -48 l-67 -34 -5 -209 c-11 -402 -11
-400 25 -475 51 -104 155 -184 263 -204 l36 -6 41 108 c23 59 59 151 80 203
l37 95 1 160 c0 181 -23 326 -58 372 -41 52 -128 66 -234 38z m180 -38 c18 -8
38 -22 46 -31 30 -36 -48 -96 -105 -82 -59 15 -97 92 -56 115 24 15 77 13 115
-2z"/>
<path d="M1582 1312 c-93 -97 -94 -97 -271 -142 -54 -14 -43 -24 47 -41 149
-28 298 25 368 131 28 41 26 68 -5 103 -40 47 -47 44 -139 -51z"/>
<path d="M2750 1382 c-15 -12 -24 -33 -27 -64 l-5 -46 47 -8 c76 -11 223 2
295 26 57 19 166 78 158 85 -2 2 -28 -1 -58 -6 -102 -17 -230 -13 -290 10 -67
26 -91 26 -120 3z"/>
</g>
</svg>
